first trial
nRows=39
nColumns=38

# SIMM Motion File Header:
name Sujet_03_velo_100.mvnx
datacolumns 38
datarows 39
otherdata 1
range 3.9330 4.5670
endheader
time pelvis_tilt  pelvis_list  pelvis_rotation  pelvis_tx  pelvis_ty  pelvis_tz  hip_flexion_r  hip_adduction_r  hip_rotation_r  knee_angle_r  ankle_angle_r  subtalar_angle_r  mtp_angle_r  hip_flexion_l  hip_adduction_l  hip_rotation_l  knee_angle_l  ankle_angle_l  subtalar_angle_l  mtp_angle_l  lumbar_extension  lumbar_bending  lumbar_rotation  arm_flex_r  arm_add_r  arm_rot_r  elbow_flex_r  pro_sup_r  wrist_flex_r  wrist_dev_r  arm_flex_l  arm_add_l  arm_rot_l  elbow_flex_l  pro_sup_l  wrist_flex_l  wrist_dev_l
3.9330	-22.0347	0.8200	-84.8039	0.0000	1.2500	-0.0000	50.4775	0.0250	-7.5532	47.3085	-7.7547	-1.0595	-0.0000	88.7204	-9.8717	-3.2516	104.2673	12.9657	-9.8064	0.0000	-13.6949	-1.3382	-0.4464	69.6782	9.8543	14.1333	5.5588	59.3722	-24.8180	-10.7093	75.9978	3.8509	13.8693	5.7254	61.9053	-30.3348	-15.4762	
3.9500	-22.0649	0.9609	-84.8101	0.0000	1.2500	-0.0000	50.6979	-0.1194	-7.5747	50.5362	-6.9000	-1.1628	0.0000	89.2383	-9.4661	-3.2571	101.5204	13.1990	-10.5604	0.0000	-13.7513	-1.3851	-0.4958	69.7783	9.8772	14.1849	5.6741	59.3334	-24.8273	-10.7309	76.0450	3.8248	13.7812	5.7611	61.9899	-30.3426	-15.4763	
3.9670	-22.0867	0.9197	-84.9478	0.0000	1.2500	-0.0000	51.5967	-0.3568	-7.3255	54.7054	-5.9004	-1.1288	0.0000	88.7693	-9.0963	-3.2146	97.7383	12.8683	-10.2531	0.0000	-13.8066	-1.3580	-0.5034	69.9852	9.8745	14.1151	5.7100	59.4598	-24.8473	-10.7147	76.1179	3.9421	13.5431	5.7394	62.1481	-30.2978	-15.4837	
3.9830	-22.1000	0.7426	-85.1893	0.0000	1.2500	-0.0000	53.1177	-0.6445	-6.8761	59.7210	-4.6914	-0.9597	-0.0000	87.4706	-8.7341	-3.1646	93.0444	12.1363	-9.3272	0.0000	-13.8606	-1.2748	-0.4811	70.2578	9.8641	13.9630	5.6992	59.6995	-24.8819	-10.6742	76.1859	4.1629	13.2257	5.6772	62.3332	-30.2140	-15.4937	
4.0000	-22.1103	0.4756	-85.4572	0.0000	1.2500	-0.0000	55.0708	-0.8893	-6.3093	65.0931	-3.5622	-0.4908	0.0000	85.4840	-8.3772	-3.3769	87.7977	11.3020	-8.4183	0.0000	-13.8823	-1.1384	-0.4462	70.4442	9.8644	13.7968	5.6776	59.9793	-24.9331	-10.6461	76.1501	4.4650	13.0867	5.5795	62.3305	-30.1078	-15.4989	
4.0170	-22.1189	0.1020	-85.6995	0.0000	1.2500	-0.0000	57.4706	-1.0612	-5.5458	70.8800	-2.6762	0.5962	-0.0000	82.7098	-7.9921	-4.0903	81.8453	10.5235	-7.7124	0.0000	-13.8544	-0.9204	-0.4072	70.4664	9.8896	13.6231	5.6366	60.2859	-24.9934	-10.6446	75.9629	4.9099	13.3559	5.4214	61.9292	-29.9803	-15.4918	
4.0330	-22.1233	-0.3614	-85.9681	0.0000	1.2500	-0.0000	60.3056	-1.1692	-4.6800	77.0585	-1.9081	2.0085	0.0000	79.2588	-7.5701	-5.0607	75.3232	9.6362	-6.9860	0.0000	-13.7953	-0.6486	-0.3564	70.4025	9.9241	13.4352	5.5837	60.6324	-25.0705	-10.6555	75.6708	5.4377	13.8045	5.2136	61.3383	-29.8303	-15.4797	
4.0500	-22.1234	-0.8189	-86.3417	0.0000	1.2500	-0.0000	63.3392	-1.2038	-4.0583	83.0289	-1.1380	2.9964	-0.0000	75.5862	-7.1610	-5.8438	69.0121	8.4521	-6.2739	0.0000	-13.7267	-0.4098	-0.2864	70.3347	9.9428	13.2805	5.5790	60.9841	-25.1895	-10.6733	75.3150	5.8423	14.0026	5.0246	60.9742	-29.6707	-15.4775	
4.0670	-22.1034	-1.2533	-86.8751	0.0000	1.2500	-0.0000	66.5845	-1.1655	-3.8545	88.7873	-0.5745	3.4250	-0.0000	71.6529	-6.7971	-6.3685	62.9396	6.7547	-5.4914	-0.0000	-13.6509	-0.2276	-0.1936	70.2727	9.9208	13.2244	5.6686	61.3044	-25.3725	-10.7007	74.8693	6.0267	13.6662	4.8714	61.1043	-29.4984	-15.4939	
4.0830	-22.0765	-1.6814	-87.5132	0.0000	1.2500	-0.0000	70.0203	-1.0858	-3.9219	94.3104	0.0017	3.4370	0.0000	67.4900	-6.4595	-6.7367	57.0850	4.7601	-4.7359	-0.0000	-13.5658	-0.0777	-0.0815	70.2069	9.8834	13.2018	5.8046	61.6282	-25.5973	-10.7345	74.3600	6.0890	13.0778	4.7529	61.4633	-29.3168	-15.5202	
4.1000	-22.0894	-2.0601	-88.1699	0.0000	1.2500	-0.0000	73.3565	-1.0118	-4.1095	98.9749	1.3625	2.6564	0.0000	63.6443	-6.1806	-6.7689	52.1670	2.9264	-4.3414	0.0000	-13.4856	0.0243	0.0479	70.1909	9.8818	13.0645	5.9056	62.0303	-25.8226	-10.7602	73.9070	6.1152	12.6569	4.7192	61.6703	-29.1488	-15.5446	
4.1170	-22.1739	-2.3658	-88.8582	0.0000	1.2500	-0.0000	76.5721	-0.9683	-4.3934	102.6705	4.1263	0.6903	-0.0000	60.2086	-6.0203	-6.2517	48.3438	1.2724	-4.5838	-0.0000	-13.4086	0.0571	0.1970	70.2618	9.9655	12.7121	5.9359	62.5885	-26.0391	-10.7643	73.5421	6.1261	12.5839	4.8354	61.5380	-28.9919	-15.5598	
4.1330	-22.2994	-2.6243	-89.5667	0.0000	1.2500	-0.0000	79.6852	-0.9375	-4.7919	105.5225	7.6603	-2.0529	0.0000	57.0738	-5.9799	-5.4083	45.4368	-0.2280	-5.1995	-0.0000	-13.3348	0.0415	0.3638	70.3820	10.0858	12.2447	5.9292	63.2273	-26.2563	-10.7607	73.2326	6.0988	12.6783	5.0308	61.2542	-28.8486	-15.5731	
4.1500	-22.4200	-2.8660	89.8253	0.0000	1.2500	-0.0000	82.4702	-0.8880	-5.1923	107.2770	10.8596	-4.7879	0.0000	54.4905	-5.9940	-4.6922	43.6638	-1.1853	-5.7292	0.0000	-13.2802	0.0248	0.5394	70.4929	10.1465	11.8141	5.9107	63.7927	-26.4614	-10.7769	73.0026	6.0534	12.8188	5.1484	61.0007	-28.7499	-15.5942	
4.1670	-22.5315	-3.0977	89.3515	0.0000	1.2500	-0.0000	84.9716	-0.8043	-5.6077	107.8033	13.5242	-7.5917	0.0000	52.5249	-5.9834	-4.2239	43.1303	-1.3991	-6.1035	-0.0000	-13.2465	0.0185	0.7374	70.5759	10.0829	11.3906	5.8737	64.3187	-26.6731	-10.8358	72.8382	5.9967	13.0217	5.1009	60.8008	-28.7149	-15.6327	
4.1830	-22.6398	-3.3116	88.9791	0.0000	1.2500	-0.0000	87.1483	-0.7026	-6.0061	107.2335	15.8070	-10.3559	-0.0000	51.1191	-6.0061	-3.8622	43.7284	-1.0661	-6.4051	0.0000	-13.2318	0.0102	0.9439	70.6491	9.9598	11.0042	5.8273	64.7719	-26.8729	-10.9148	72.7535	5.9213	13.2706	4.9772	60.6315	-28.7242	-15.6789	
4.2000	-22.7137	-3.5140	88.7313	0.0000	1.2500	-0.0000	88.6511	-0.5828	-6.1949	105.6951	17.2224	-12.1550	0.0000	50.3451	-6.1715	-3.6599	45.3790	-0.3947	-6.4108	0.0000	-13.2474	0.0117	1.1093	70.7107	9.8750	10.8967	5.8283	64.8962	-26.9917	-10.9726	72.8139	5.8264	13.3953	4.8868	60.6043	-28.7508	-15.7131	
4.2170	-22.7443	-3.7628	88.6356	0.0000	1.2500	-0.0000	89.3965	-0.4256	-5.9232	103.1373	17.6144	-12.6726	-0.0000	50.2618	-6.5675	-3.7389	48.1874	0.7007	-5.9409	0.0000	-13.3112	0.0536	1.2188	70.7611	9.8512	11.2415	5.9406	64.5025	-26.9919	-10.9902	73.1155	5.7206	13.2567	4.8682	60.8400	-28.7872	-15.7290	
4.2330	-22.7419	-3.9992	88.6654	0.0000	1.2500	-0.0000	89.4687	-0.2332	-5.4259	99.6088	17.2382	-12.3297	0.0000	50.8141	-7.1007	-3.9626	52.0704	2.1439	-5.1674	-0.0000	-13.4051	0.1055	1.2876	70.7991	9.8637	11.8655	6.0981	63.7800	-26.9109	-10.9861	73.5619	5.5960	12.9950	4.8818	61.2175	-28.8410	-15.7330	
4.2500	-22.7034	-4.0558	88.7625	0.0000	1.2500	-0.0000	88.7724	-0.0340	-5.2376	95.3896	16.2795	-11.3665	0.0000	51.9023	-7.6075	-4.0000	56.6643	3.4717	-4.4046	-0.0000	-13.4875	0.0883	1.3102	70.8212	9.9401	12.4910	6.1664	63.0374	-26.7915	-10.9752	73.9298	5.4265	12.8584	4.9195	61.4846	-28.9089	-15.7242	
4.2670	-22.6142	-3.8247	88.9070	0.0000	1.2500	-0.0000	87.1930	0.1867	-5.6845	90.4179	14.6699	-9.5057	0.0000	53.5656	-8.0307	-3.7251	62.1059	4.6349	-3.6507	0.0000	-13.5498	-0.0476	1.2757	70.8380	10.1380	13.0852	6.0945	62.3037	-26.6339	-10.9585	74.1289	5.1717	13.0524	5.0052	61.4399	-28.9958	-15.6979	
4.2830	-22.4872	-3.4147	89.1179	0.0000	1.2500	-0.0000	84.8506	0.4298	-6.4394	84.7864	12.4848	-6.9890	0.0000	55.7688	-8.4149	-3.2668	68.2715	5.6623	-2.8991	-0.0000	-13.6015	-0.2523	1.1945	70.8387	10.4020	13.6806	5.9286	61.5480	-26.4380	-10.9349	74.2510	4.8726	13.3713	5.1172	61.2837	-29.0968	-15.6587	
4.3000	-22.3599	-2.9831	89.3958	0.0000	1.2500	-0.0000	82.0016	0.6365	-7.0633	78.9761	10.0982	-4.8391	0.0000	58.3008	-8.7414	-2.6856	74.3936	6.1908	-2.4564	0.0000	-13.6284	-0.4559	1.0921	70.7898	10.5923	14.0977	5.6934	60.9880	-26.2468	-10.9156	74.3429	4.6244	13.4456	5.1777	61.3665	-29.1926	-15.6200	
4.3170	-22.2420	-2.5670	89.7274	0.0000	1.2500	-0.0000	78.5620	0.7905	-7.4463	72.8804	7.5203	-3.4775	0.0000	61.1664	-8.9940	-1.8966	80.3551	5.8502	-2.4845	-0.0000	-13.6136	-0.6514	0.9769	70.6663	10.6380	14.2291	5.3527	60.7561	-26.0812	-10.9111	74.3993	4.4633	12.9891	5.1348	61.9678	-29.2756	-15.5859	
4.3330	-22.1222	-2.1297	-89.8740	0.0000	1.2500	-0.0000	74.6133	0.8950	-7.7207	66.5819	4.7308	-2.5053	0.0000	64.3633	-9.1537	-1.0015	86.2638	5.0095	-2.7520	-0.0000	-13.5745	-0.8467	0.8412	70.4946	10.6096	14.1824	4.9524	60.7209	-25.9203	-10.9109	74.4242	4.3486	12.2877	5.0297	62.8086	-29.3534	-15.5524	
4.3500	-22.0072	-1.7176	-89.3669	0.0000	1.2500	-0.0000	70.6545	0.8997	-7.8233	60.8408	2.0571	-1.7432	-0.0000	67.6627	-9.2207	-0.3406	91.6651	4.4240	-3.0370	0.0000	-13.5483	-0.9932	0.6857	70.3191	10.5798	14.1008	4.6446	60.7043	-25.7451	-10.8945	74.4773	4.2635	11.8291	4.9300	63.4031	-29.4305	-15.5213	
4.3670	-21.8913	-1.3442	-88.6758	0.0000	1.2500	-0.0000	66.6792	0.7345	-7.6741	55.7369	-0.4771	-1.1256	-0.0000	71.0909	-9.2264	-0.0480	96.5477	4.3046	-3.2960	0.0000	-13.5498	-1.0618	0.4997	70.1609	10.5797	13.9910	4.4923	60.6723	-25.5278	-10.8411	74.5877	4.2259	11.8545	4.8722	63.5165	-29.5039	-15.4892	
4.3830	-21.7784	-0.9967	-87.8760	0.0000	1.2500	-0.0000	62.6886	0.4591	-7.3979	51.1975	-2.8992	-0.7314	-0.0000	74.6081	-9.1700	-0.0212	100.8831	4.4635	-3.6454	-0.0000	-13.5634	-1.0813	0.2932	69.9992	10.5786	13.8461	4.4331	60.6584	-25.2962	-10.7715	74.7258	4.2223	12.1222	4.8299	63.3841	-29.5766	-15.4597	
4.4000	-21.6903	-0.6820	-87.1526	0.0000	1.2500	-0.0000	59.1959	0.2263	-7.2011	47.7562	-4.9691	-0.5665	-0.0000	77.8853	-9.0425	-0.2269	104.2021	5.0590	-4.1820	-0.0000	-13.5801	-1.0895	0.0978	69.8161	10.5573	13.7890	4.4273	60.5851	-25.1145	-10.7283	74.8633	4.1929	12.3953	4.7834	63.2257	-29.6615	-15.4456	
4.4170	-21.6325	-0.4148	-86.5447	0.0000	1.2500	-0.0000	56.3333	0.1172	-7.0689	45.6071	-6.6794	-0.7101	-0.0000	80.9014	-8.8286	-0.7654	106.3646	6.3429	-4.9758	-0.0000	-13.5962	-1.0857	-0.0820	69.5717	10.4902	13.8940	4.4705	60.3964	-25.0188	-10.7367	75.0061	4.1033	12.6271	4.7144	63.0847	-29.7743	-15.4572	
4.4330	-21.6019	-0.1786	-86.0118	0.0000	1.2500	-0.0000	53.9703	0.0520	-6.9710	44.5572	-8.0403	-1.0377	-0.0000	83.6765	-8.5868	-1.5249	107.5362	8.0401	-5.9536	0.0000	-13.6147	-1.0703	-0.2507	69.3060	10.4023	14.0868	4.5666	60.1490	-24.9730	-10.7717	75.1491	3.9869	12.8643	4.6420	62.9184	-29.8998	-15.4845	
4.4500	-21.6086	0.0670	-85.6181	0.0000	1.2500	-0.0000	52.2305	-0.0515	-7.0576	44.5634	-8.8391	-1.2849	-0.0000	85.9540	-8.3939	-2.1186	107.7141	9.5250	-7.0066	0.0000	-13.6376	-1.0824	-0.3898	69.1210	10.3495	14.2672	4.6883	59.9346	-24.9332	-10.8010	75.2481	3.8853	13.0104	4.5991	62.8169	-30.0036	-15.5092	
4.4670	-21.6655	0.3809	-85.4115	0.0000	1.2500	-0.0000	51.1579	-0.2190	-7.5023	45.6904	-8.8802	-1.4607	0.0000	87.7446	-8.2530	-2.3330	106.8690	10.7235	-8.3411	-0.0000	-13.6667	-1.1616	-0.4904	69.0608	10.3604	14.4197	4.8461	59.7702	-24.8831	-10.8169	75.2710	3.7692	13.0172	4.5970	62.8266	-30.0778	-15.5240	
4.4830	-21.7615	0.7051	-85.3431	0.0000	1.2500	-0.0000	50.7104	-0.4277	-8.1154	47.8774	-8.3451	-1.6113	0.0000	89.0467	-8.1313	-2.3501	105.0237	11.6872	-9.7360	0.0000	-13.7001	-1.2682	-0.5618	69.0808	10.4061	14.5601	5.0297	59.6392	-24.8387	-10.8271	75.2493	3.6677	12.9327	4.6226	62.9009	-30.1301	-15.5359	
4.5000	-21.8696	0.9047	-85.3325	0.0000	1.2500	-0.0000	50.8808	-0.6899	-8.5062	50.8871	-7.5837	-1.5784	0.0000	89.5872	-8.0266	-2.3700	102.2493	12.0486	-10.5037	0.0000	-13.7343	-1.3234	-0.6134	69.1496	10.4576	14.6350	5.1804	59.5831	-24.8047	-10.8217	75.2341	3.7094	12.8041	4.6715	62.9892	-30.1502	-15.5472	
4.5170	-21.9919	0.9340	-85.3688	0.0000	1.2500	-0.0000	51.7267	-1.0402	-8.5509	54.7438	-6.6171	-1.3025	-0.0000	89.2539	-7.9493	-2.3628	98.4543	11.5799	-10.2960	0.0000	-13.7752	-1.3052	-0.6415	69.2826	10.5083	14.6023	5.2742	59.6214	-24.7748	-10.7779	75.2726	3.9817	12.5614	4.7571	63.1527	-30.1296	-15.5590	
4.5330	-22.1267	0.8381	-85.4635	0.0000	1.2500	-0.0000	53.1913	-1.4440	-8.3627	59.3982	-5.3842	-0.8668	0.0000	88.1588	-7.8833	-2.3547	93.7363	10.5528	-9.5017	-0.0000	-13.8169	-1.2358	-0.6490	69.4643	10.5654	14.5037	5.3353	59.7343	-24.7553	-10.7186	75.3202	4.3978	12.2754	4.8677	63.3307	-30.0766	-15.5703	
4.5500	-22.2402	0.6191	-85.5701	0.0000	1.2500	-0.0000	55.0966	-1.8069	-7.9122	64.5124	-4.1557	-0.3090	-0.0000	86.3660	-7.7826	-2.6324	88.4590	9.3925	-8.5510	0.0000	-13.8382	-1.1021	-0.6552	69.6180	10.6200	14.4126	5.3765	59.9040	-24.7693	-10.7026	75.2889	4.8239	12.2047	4.9582	63.2893	-30.0064	-15.5803	
4.5670	-22.3173	0.2365	-85.6365	0.0000	1.2500	-0.0000	57.4652	-2.0935	-7.0407	70.2145	-3.0173	0.4897	-0.0000	83.7658	-7.5965	-3.4301	82.4963	8.2063	-7.4105	0.0000	-13.8317	-0.8688	-0.6721	69.7155	10.6588	14.3583	5.3828	60.1419	-24.8283	-10.7755	75.1423	5.2236	12.5937	5.0053	62.8007	-29.9262	-15.5870	
